<svg xmlns="http://www.w3.org/2000/svg" viewBox="0 0 1000 1000"><defs><style>.cls-1{fill:#9e1825;}.cls-2{fill:#e30613;}.cls-3{fill:#fff;}</style></defs><g id="Camada_5" data-name="Camada 5"><polygon class="cls-1" points="825.6 181.99 230.21 468.64 816.29 625.17 618.82 465.22 825.6 181.99"/><polygon class="cls-2" points="23.43 67.79 618.82 465.22 32.73 853.19 230.21 460.49 23.43 67.79"/><path class="cls-3" d="M528,661.72V853.19H493.79L404,736.94V853.19H362.84V661.72h34.47L486.84,778V661.72Z"/><path class="cls-3" d="M704.29,853.19l-43.48-66.47-42.7,66.47H570.26l66.63-97.38L573.6,661.72h47.34l41.42,62.09L703,661.72h45l-62.78,92.45,67.15,99Z"/><path class="cls-3" d="M840.6,697.82H783v-36.1H939.9v36.1H882.27V853.19H840.6Z"/><path class="cls-3" d="M362.86,888.21H392c22.91,0,38.35,15,38.35,36.43S414.91,961.08,392,961.08H362.86Zm28.74,66.21c19,0,31.28-12.29,31.28-29.78s-12.27-29.77-31.28-29.77H370.43v59.55Z"/><path class="cls-3" d="M477.58,888.21h7.56v72.87h-7.56Z"/><path class="cls-3" d="M588.9,924.64h7.26v27.8c-6.75,6.14-16.36,9.27-26.28,9.27-21.78,0-37.73-15.72-37.73-37.07s16-37.06,37.83-37.06c10.84,0,20.25,3.54,26.58,10.52l-4.7,4.89c-6-6-13.19-8.54-21.57-8.54-17.69,0-30.68,12.81-30.68,30.19s13,30.2,30.57,30.2c6.85,0,13.2-1.57,18.72-5.63Z"/><path class="cls-3" d="M646.68,888.21h7.56v72.87h-7.56Z"/><path class="cls-3" d="M721.43,894.87H696.28v-6.66h57.87v6.66H729v66.21h-7.57Z"/><path class="cls-3" d="M833.64,941.61H793.76l-8.59,19.47H777.3L810,888.21h7.46l32.72,72.87h-8Zm-2.76-6.24L813.7,896.22l-17.18,39.15Z"/><path class="cls-3" d="M892.37,888.21h7.57v66.21H940v6.66H892.37Z"/></g></svg>