<svg xmlns="http://www.w3.org/2000/svg" xmlns:xlink="http://www.w3.org/1999/xlink" viewBox="0 0 916.6 893.92"><defs><style>.cls-1{fill:url(#Gradiente_sem_nome_203);}.cls-2{fill:url(#Gradiente_sem_nome_203-2);}.cls-3{fill:#fff;}</style><linearGradient id="Gradiente_sem_nome_203" x1="206.78" y1="335.79" x2="802.17" y2="335.79" gradientUnits="userSpaceOnUse"><stop offset="0.44" stop-color="#ef4444"/><stop offset="1" stop-color="#f97316"/></linearGradient><linearGradient id="Gradiente_sem_nome_203-2" x1="0" y1="392.7" x2="595.39" y2="392.7" xlink:href="#Gradiente_sem_nome_203"/></defs><g id="Camada_2" data-name="Camada 2"><g id="Camada_5" data-name="Camada 5"><polygon class="cls-1" points="802.17 114.2 206.78 400.85 792.87 557.38 595.39 397.44 802.17 114.2"/><polygon class="cls-2" points="0 0 595.39 397.44 9.3 785.4 206.78 392.7 0 0"/><path class="cls-3" d="M504.58,593.93V785.4H470.36L380.58,669.15V785.4H339.41V593.93h34.48l89.53,116.25V593.93Z"/><path class="cls-3" d="M680.87,785.4l-43.48-66.47L594.68,785.4H546.83L613.46,688l-63.29-94.09h47.34L638.93,656l40.65-62.09h45l-62.77,92.45,67.15,99Z"/><path class="cls-3" d="M817.17,630H759.54v-36.1H916.48V630H858.85V785.4H817.17Z"/><path class="cls-3" d="M339.44,820.42h29.14c22.9,0,38.34,15,38.34,36.43s-15.44,36.44-38.34,36.44H339.44Zm28.73,66.21c19,0,31.29-12.28,31.29-29.78s-12.27-29.77-31.29-29.77H347v59.55Z"/><path class="cls-3" d="M454.15,820.42h7.57v72.87h-7.57Z"/><path class="cls-3" d="M565.47,856.85h7.26v27.8c-6.75,6.14-16.36,9.27-26.28,9.27-21.78,0-37.73-15.72-37.73-37.07s15.95-37.06,37.83-37.06c10.84,0,20.25,3.54,26.59,10.52l-4.71,4.89c-6-6-13.18-8.54-21.57-8.54-17.69,0-30.67,12.81-30.67,30.19s13,30.2,30.57,30.2c6.85,0,13.19-1.57,18.71-5.63Z"/><path class="cls-3" d="M623.25,820.42h7.57v72.87h-7.57Z"/><path class="cls-3" d="M698,827.08H672.85v-6.66h57.88v6.66H705.57v66.21H698Z"/><path class="cls-3" d="M810.21,873.82H770.34l-8.59,19.47h-7.87l32.72-72.87h7.46l32.72,72.87h-8Zm-2.76-6.24-17.17-39.15L773.1,867.58Z"/><path class="cls-3" d="M869,820.42h7.56v66.21H916.6v6.66H869Z"/></g></g></svg>