<svg xmlns="http://www.w3.org/2000/svg" version="1.1" xmlns:xlink="http://www.w3.org/1999/xlink" xmlns:svgjs="http://svgjs.dev/svgjs" viewBox="0 0 1422 800"><defs><filter id="uuunion-blur" x="-100%" y="-100%" width="400%" height="400%" color-interpolation-filters="sRGB">
        <feGaussianBlur in="SourceGraphic" stdDeviation="6 0" result="blur"></feGaussianBlur>
        <feDropShadow stdDeviation="12.307692307692308" in="blur" dx="10" dy="10" flood-color="#f97316" flood-opacity="0.35" x="0%" y="0%" width="100%" height="100%"></feDropShadow>
      </filter><filter id="uuunion-blur2" x="-100%" y="-100%" width="400%" height="400%" color-interpolation-filters="sRGB">
        <feGaussianBlur in="SourceGraphic" stdDeviation="6 0" result="blur"></feGaussianBlur>
        <feDropShadow stdDeviation="12.307692307692308" in="blur" dx="-10" dy="-10" flood-color="#f97316" flood-opacity="0.35" x="0%" y="0%" width="100%" height="100%"></feDropShadow>
      </filter><linearGradient gradientTransform="rotate(140, 0.5, 0.5)" x1="50%" y1="0%" x2="50%" y2="100%" id="uuunion-grad"><stop stop-color="#e30613" offset="10%"></stop><stop stop-color="#f97316" offset="90%"></stop></linearGradient><linearGradient gradientTransform="rotate(135, 0.5, 0.5)" x1="50%" y1="0%" x2="50%" y2="100%" id="uuunion-grad2"><stop stop-color="#e30613" offset="25%"></stop><stop stop-color="#f97316" offset="100%"></stop></linearGradient><linearGradient gradientTransform="rotate(333, 0.5, 0.5)" x1="50%" y1="0%" x2="50%" y2="100%" id="uuunion-grad3"><stop stop-color="#e30613" offset="0%"></stop><stop stop-color="#f97316" offset="75%"></stop></linearGradient></defs><path d="M-119.96 -84.87Q-107.31 -83.7 -94.66 -82.36 -82.02 -80.89 -69.37 -79.39 -56.72 -77.91 -44.07 -76.53 -31.42 -75.33 -18.78 -74.35 -6.13 -73.66 6.51 -73.27 19.16 -73.21 31.81 -73.49 44.45 -74.09 57.1 -74.98 69.75 -76.11 82.4 -77.44 95.05 -78.89 107.69 -80.39 120.34 -81.88 132.99 -83.27 145.64 -84.51 158.28 -85.52 170.93 -86.26 183.58 -86.69 196.23 -86.79 208.88 -86.56 221.52 -86 234.17 -85.15 246.82 -84.05 259.47 -82.75 272.12 -81.31 284.76 -79.81 297.41 -78.31 310.06 -76.9 322.71 -75.64 335.36 -74.6 348 -73.82 360.65 -73.34 373.3 -73.2 385.95 -73.38 398.59 -73.89 411.24 -74.7 423.89 -75.77 436.54 -77.05 449.19 -78.47 461.83 -79.97 474.48 -81.47 487.13 -82.9 499.78 -84.18 512.43 -85.26 525.07 -86.08 537.72 -86.6 550.37 -86.79 563.02 -86.65 575.67 -86.19 588.31 -85.42 600.96 -84.38 613.61 -83.13 626.26 -81.72 638.91 -80.23 651.55 -78.72 664.2 -77.28 676.85 -75.98 689.5 -74.87 702.15 -74.01 714.79 -73.44 727.44 -73.2 740.09 -73.3 752.74 -73.72 765.39 -74.45 778.03 -75.45 790.68 -76.68 803.33 -78.07 815.98 -79.55 828.62 -81.06 841.27 -82.51 853.92 -83.84 866.57 -84.98 879.22 -85.88 891.86 -86.49 904.51 -86.77 917.16 -86.73 929.81 -86.35 942.46 -85.66 955.1 -84.69 967.75 -83.49 980.4 -82.12 993.05 -80.65 1005.7 -79.14 1018.34 -77.68 1030.99 -76.32 1043.64 -75.15 1056.29 -74.22 1068.94 -73.57 1081.58 -73.24 1094.23 -73.24 1106.88 -73.57 1119.53 -74.22 1132.18 -75.15 1144.82 -76.32 1157.47 -77.67 1170.12 -79.13 1182.77 -80.64 1195.42 -82.12 1208.06 -83.49 1220.71 -84.69 1233.36 -85.66 1246.01 -86.35 1258.66 -86.73 1271.3 -86.77 1283.95 -86.49 1296.6 -85.88 1309.25 -84.99 1321.9 -83.85 1334.54 -82.52 1347.19 -81.07 1359.84 -79.56 1372.49 -78.08 1385.14 -76.69 1397.78 -75.46 1410.43 -74.45 1423.08 -73.72 1435.73 -73.3 1448.38 -73.2 1461.02 -73.44 1473.67 -74 1486.32 -74.86 1498.97 -75.97 1501.81 -60.61 1510.01 -45.26 1522.86 -29.9 1539.27 -14.55 1557.81 0.8 1576.9 16.15 1594.9 31.51 1610.27 46.86 1621.67 62.22 1628.14 77.57 1629.12 92.93 1624.52 108.28 1614.74 123.64 1600.62 138.99 1583.37 154.35 1564.48 169.7 1545.56 185.06 1528.24 200.41 1514 215.77 1504.08 231.12 1499.32 246.48 1500.14 261.83 1506.45 277.19 1517.72 292.55 1532.99 307.9 1550.93 323.26 1570.02 338.61 1588.6 353.97 1605.09 369.32 1618.06 384.68 1626.41 400.03 1629.42 415.39 1626.82 430.74 1618.85 446.1 1606.18 461.45 1589.91 476.81 1571.42 492.16 1552.32 507.52 1534.24 522.87 1518.73 538.23 1507.12 553.58 1500.42 568.94 1499.19 584.29 1503.55 599.65 1513.11 615 1527.07 630.36 1544.21 645.71 1563.06 661.07 1582.02 676.43 1599.44 691.78 1613.84 707.14 1623.97 722.49 1628.97 737.85 1628.41 753.2 1622.33 768.56 1611.26 783.91 1596.14 799.27 1578.29 814.62 1559.22 829.98 1540.58 845.33 1523.97 860.69 1510.81 876.04 1502.24 891.4 1498.99 906.75 1486.34 914.12 1473.69 919.81 1461.04 923.55 1448.39 925.14 1435.75 924.52 1423.1 921.7 1410.45 916.83 1397.8 910.16 1385.15 902 1372.5 892.75 1359.86 882.89 1347.21 872.87 1334.56 863.21 1321.91 854.38 1309.26 846.8 1296.62 840.86 1283.97 836.84 1271.32 834.94 1258.67 835.25 1246.02 837.77 1233.37 842.36 1220.73 848.81 1208.08 856.78 1195.43 865.9 1182.78 875.71 1170.13 885.73 1157.49 895.47 1144.84 904.45 1132.19 912.22 1119.54 918.41 1106.89 922.72 1094.24 924.92 1081.6 924.91 1068.95 922.7 1056.3 918.38 1043.65 912.18 1031 904.4 1018.36 895.41 1005.71 885.67 993.06 875.65 980.41 865.84 967.76 856.73 955.11 848.76 942.47 842.33 929.82 837.75 917.17 835.25 904.52 834.94 891.87 836.85 879.23 840.89 866.58 846.84 853.93 854.42 841.28 863.27 828.63 872.93 815.98 882.94 803.34 892.81 790.69 902.05 778.04 910.2 765.39 916.87 752.74 921.72 740.1 924.52 727.45 925.14 714.8 923.53 702.15 919.79 689.5 914.09 676.86 906.71 664.21 898.02 651.56 888.44 638.91 878.45 626.26 868.53 613.61 859.18 600.97 850.85 588.32 843.95 575.67 838.83 563.02 835.73 550.37 834.8 537.73 836.1 525.08 839.56 512.43 845 499.78 852.17 487.13 860.7 474.49 870.18 461.84 880.14 449.19 890.1 436.54 899.56 423.89 908.06 411.24 915.18 398.6 920.56 385.95 923.96 373.3 925.19 360.65 924.2 348 921.04 335.36 915.86 322.71 908.91 310.06 900.55 297.41 891.17 284.76 881.25 272.12 871.26 259.47 861.7 246.82 853.04 234.17 845.71 221.52 840.06 208.87 836.38 196.23 834.84 183.58 835.52 170.93 838.38 158.28 843.3 145.63 850.01 132.99 858.2 120.34 867.47 107.69 877.34 95.04 887.35 82.39 897 69.75 905.81 57.1 913.35 44.45 919.25 31.8 923.22 19.15 925.07 6.51 924.7 -6.13 922.13 -18.78 917.49 -31.43 911.01 -44.08 903 -56.72 893.86 -69.37 884.04 -82.02 874.02 -94.67 864.3 -107.32 855.34 -119.97 847.6 -121.07 833.03 -123.99 818.46 -128.48 803.89 -134.14 789.32 -140.49 774.75 -146.99 760.18 -153.07 745.61 -158.22 731.04 -161.99 716.47 -164.07 701.9 -164.26 687.33 -162.55 672.76 -159.1 658.19 -154.2 643.62 -148.26 629.05 -141.8 614.48 -135.37 599.91 -129.53 585.34 -124.78 570.77 -121.52 556.2 -120.04 541.63 -120.45 527.06 -122.74 512.49 -126.69 497.92 -131.98 483.35 -138.14 468.78 -144.65 454.21 -150.95 439.64 -156.49 425.07 -160.81 410.5 -163.53 395.93 -164.41 381.36 -163.39 366.79 -160.54 352.22 -156.12 337.65 -150.5 323.08 -144.17 308.51 -137.67 293.94 -131.55 279.37 -126.35 264.8 -122.51 250.23 -120.36 235.66 -120.08 221.09 -121.7 206.52 -125.08 191.95 -129.93 177.38 -135.83 162.81 -142.28 148.24 -148.72 133.67 -154.6 119.1 -159.41 104.53 -162.74 89.96 -164.31 75.39 -163.98 60.82 -161.77 46.25 -157.88 31.68 -152.65 17.11 -146.52 2.54 -140.01 -12.02 -133.69 -26.59 -128.1 -41.16 -123.72 -55.73 -120.93 -70.3 -119.96 -84.87" fill="url(#uuunion-grad)"></path><path d="M-119.97 -84.87Q-120.94 -70.3 -123.73 -55.73 -128.11 -41.16 -133.7 -26.59 -140.02 -12.02 -146.53 2.54 -152.66 17.11 -157.89 31.68 -161.78 46.25 -163.99 60.82 -164.32 75.39 -162.75 89.96 -159.42 104.53 -154.61 119.1 -148.73 133.67 -142.29 148.24 -135.84 162.81 -129.94 177.38 -125.09 191.95 -121.71 206.52 -120.09 221.09 -120.37 235.66 -122.52 250.23 -126.36 264.8 -131.56 279.37 -137.68 293.94 -144.18 308.51 -150.51 323.08 -156.13 337.65 -160.55 352.22 -163.4 366.79 -164.42 381.36 -155.08 384.24 -145.73 387.46 -136.39 390.96 -127.05 394.66 -117.71 398.47 -108.36 402.32 -99.02 406.12 -89.68 409.78 -80.33 413.23 -70.99 416.38 -61.65 419.18 -52.3 421.56 -42.96 423.47 -33.62 424.86 -15.96 425.92 -12.84 425.98 -1.14 422.13 10.59 417.43 22.38 411.94 34.21 405.75 46.06 398.97 57.93 391.73 69.82 384.17 81.71 376.46 93.61 368.73 105.49 361.16 117.37 353.9 129.23 347.07 141.06 340.8 152.86 335.2 164.62 330.34 176.34 326.26 188.02 323.01 199.64 320.57 211.21 318.9 222.72 317.96 234.17 317.66 245.56 317.9 256.88 318.55 268.13 319.49 279.31 320.57 290.42 321.65 301.47 322.59 312.44 323.24 323.35 323.49 334.19 323.22 344.96 322.34 355.68 320.78 366.33 318.5 376.93 315.48 387.47 311.72 397.97 307.25 408.43 302.12 418.84 296.41 429.23 290.22 439.59 283.65 449.93 276.83 460.25 269.89 470.56 262.95 480.88 256.15 491.2 249.61 501.53 243.44 511.88 237.75 522.26 232.6 532.66 228.08 543.11 224.21 553.61 221.01 564.16 218.48 574.76 216.58 585.43 215.28 596.18 214.49 607 214.14 617.9 214.12 628.89 214.32 639.96 214.62 651.14 214.92 662.41 215.09 673.78 215.01 685.25 214.6 696.83 213.76 708.52 212.43 720.31 210.54 732.21 208.06 744.22 204.98 756.33 201.31 768.55 197.07 780.86 192.31 793.28 187.09 805.79 181.49 818.39 175.6 831.08 169.52 843.85 163.35 856.69 157.2 869.6 151.17 882.57 145.35 895.59 139.84 908.66 134.71 921.76 130.02 934.9 125.83 948.05 122.15 961.21 119.01 974.38 116.38 987.53 114.26 1000.66 112.58 1013.76 111.31 1026.82 110.36 1039.83 109.66 1052.78 109.12 1065.66 108.65 1078.45 108.16 1091.15 107.56 1103.75 106.76 1116.24 105.7 1128.61 104.29 1140.84 102.5 1152.94 100.28 1164.9 97.61 1176.7 94.48 1188.34 90.91 1199.81 86.9 1211.11 82.51 1222.24 77.79 1233.18 72.78 1243.94 67.57 1254.5 62.23 1264.88 56.84 1275.07 51.47 1285.07 46.21 1294.87 41.11 1304.49 36.26 1313.91 31.69 1323.16 27.46 1332.22 23.59 1341.11 20.11 1349.83 17.01 1358.38 14.28 1374.96 10.01 1391.13 6.55 1406.7 3.91 1422 1.37 1402.5 -16.22 1385.28 -33.81 1372.34 -51.41 1365.19 -69 1364.66 -86.6 1370.82 -104.2 1382.94 -121.79 1399.62 -139.39 1387.55 -140.29 1375.48 -141.18 1363.41 -142.02 1351.34 -142.77 1339.28 -143.41 1327.21 -143.9 1315.14 -144.23 1303.07 -144.39 1291 -144.35 1278.93 -144.14 1266.86 -143.75 1254.79 -143.2 1242.73 -142.52 1230.66 -141.74 1218.59 -140.88 1206.52 -139.98 1194.45 -139.08 1182.38 -138.22 1170.31 -137.44 1158.24 -136.76 1146.17 -136.22 1134.11 -135.84 1122.04 -135.63 1109.97 -135.61 1097.9 -135.77 1085.83 -136.1 1073.76 -136.6 1061.69 -137.24 1049.62 -138 1037.56 -138.84 1025.49 -139.73 1013.42 -140.63 1001.35 -141.51 989.28 -142.32 977.21 -143.03 965.14 -143.62 953.07 -144.05 941.01 -144.31 928.94 -144.39 916.87 -144.29 904.8 -144.01 892.73 -143.56 880.66 -142.96 868.59 -142.23 856.52 -141.41 844.45 -140.54 832.39 -139.63 820.32 -138.75 808.25 -137.92 796.18 -137.17 784.11 -136.54 772.04 -136.06 759.97 -135.74 747.9 -135.6 735.84 -135.65 723.77 -135.87 711.7 -136.27 699.63 -136.83 687.56 -137.52 675.49 -138.31 663.42 -139.18 651.35 -140.08 639.28 -140.97 627.22 -141.82 615.15 -142.6 603.08 -143.27 591.01 -143.8 578.94 -144.17 566.87 -144.37 554.8 -144.38 542.73 -144.21 530.67 -143.86 518.6 -143.35 506.53 -142.69 494.46 -141.93 482.39 -141.08 470.32 -140.19 458.25 -139.29 446.18 -138.42 434.12 -137.62 422.05 -136.91 409.98 -136.34 397.91 -135.92 385.84 -135.67 373.77 -135.6 361.7 -135.71 349.63 -136.01 337.56 -136.47 325.5 -137.08 313.43 -137.81 301.36 -138.64 289.29 -139.52 277.22 -140.42 265.15 -141.3 253.08 -142.13 241.01 -142.87 228.95 -143.49 216.88 -143.96 204.81 -144.27 192.74 -144.39 180.67 -144.33 168.6 -144.09 156.53 -143.68 144.46 -143.11 132.39 -142.41 120.33 -141.62 108.26 -140.75 96.19 -139.85 84.12 -138.96 72.05 -138.11 59.98 -137.34 47.91 -136.68 35.84 -136.16 23.78 -135.8 11.71 -135.62 -0.35 -135.62 -12.42 -135.8 -24.49 -136.16 -36.56 -136.69 -48.63 -137.35 -60.7 -138.12 -72.77 -138.97 -84.83 -139.86 -96.9 -140.76 -108.97 -141.63 -121.04 -142.43 -134.85 -136.09 -129.33 -114.37 -123.71 -99.65 -119.97 -84.87" fill="url(#uuunion-grad2)" filter="url(#uuunion-blur)"></path><path d="M1421.49 323.13Q1430.38 326.43 1439.26 329.59 1448.14 332.54 1457.03 335.21 1465.91 337.55 1474.79 339.5 1483.68 341.03 1492.56 342.1 1501.44 342.68 1510.33 342.77 1519.21 342.36 1528.09 341.45 1536.98 340.08 1545.86 338.27 1554.75 336.06 1563.63 333.49 1585.61 351.41 1605.09 369.32 1619.8 387.24 1628.03 405.15 1628.82 423.06 1622.07 440.98 1608.58 458.89 1589.91 476.81 1568.24 494.72 1546.1 512.64 1526.07 530.55 1510.49 548.47 1501.17 566.38 1499.19 584.29 1504.8 602.21 1517.33 620.12 1535.32 638.04 1556.69 655.95 1578.92 673.87 1599.44 691.78 1615.85 709.69 1626.24 727.61 1629.39 745.52 1624.95 763.44 1613.41 781.35 1596.14 799.27 1575.15 817.18 1552.88 835.1 1531.93 853.01 1514.74 870.92 1503.31 888.84 1498.99 906.75 1487.39 913.57 1475.78 919 1464.18 922.82 1452.58 924.86 1440.98 925.04 1429.38 923.36 1417.78 919.89 1406.17 914.76 1394.57 908.2 1382.97 900.47 1371.37 891.89 1359.77 882.82 1348.17 873.63 1336.56 864.7 1324.96 856.41 1313.36 849.09 1301.76 843.06 1290.16 838.55 1278.56 835.76 1266.95 834.8 1255.35 835.7 1243.75 838.45 1232.15 842.91 1220.55 848.91 1208.95 856.19 1197.35 864.46 1185.74 873.37 1174.14 882.56 1162.54 891.64 1150.94 900.24 1139.34 908 1127.74 914.6 1116.13 919.77 1104.53 923.29 1092.93 925.02 1081.33 924.89 1069.73 922.9 1058.13 919.13 1046.52 913.74 1034.92 906.96 1023.32 899.06 1011.72 890.37 1000.12 881.25 988.52 872.08 976.91 863.24 965.31 855.09 953.71 847.97 942.11 842.18 930.51 837.95 918.91 835.46 907.3 834.82 895.7 836.04 884.1 839.09 872.5 843.83 860.9 850.06 849.3 857.54 837.7 865.94 826.09 874.93 814.49 884.12 802.89 893.15 791.29 901.63 779.69 909.21 768.09 915.59 756.48 920.49 744.88 923.72 733.28 925.13 721.68 924.68 710.08 922.38 698.48 918.32 686.87 912.68 675.27 905.68 663.67 897.62 652.07 888.84 640.47 879.68 628.87 870.54 617.26 861.79 605.66 853.79 594.06 846.88 582.46 841.34 570.86 837.4 559.26 835.22 547.65 834.9 536.05 836.44 524.45 839.78 512.85 844.79 501.25 851.26 489.65 858.91 478.05 867.44 466.44 876.49 454.84 885.68 443.24 894.64 431.64 902.99 420.04 910.39 408.44 916.53 396.83 921.16 385.23 924.09 373.63 925.19 362.03 924.42 350.43 921.81 338.83 917.47 327.22 911.58 315.62 904.38 304.02 896.17 292.42 887.29 280.82 878.11 269.22 869.01 257.61 860.37 246.01 852.53 234.41 845.83 222.81 840.55 211.21 836.9 199.61 835.03 188 835.03 176.4 836.88 164.8 840.52 153.2 845.79 141.6 852.48 130 860.31 118.4 868.95 106.79 878.05 95.19 887.23 83.59 896.11 71.99 904.33 60.39 911.53 48.79 917.43 37.18 921.78 19.6 919.6 12.71 904.39 11.26 893.99 9.35 883.59 7.04 873.19 4.42 862.79 0.38 847.19 -0.32 842 10.44 834.59 21.39 825.44 32.55 814.7 43.93 802.56 55.54 789.31 67.38 775.27 79.44 760.76 91.73 746.17 104.22 731.84 116.91 718.12 129.76 705.34 142.77 693.75 155.89 683.58 169.11 674.96 182.39 668 195.7 662.69 209.01 658.98 222.3 656.72 235.53 655.74 248.68 655.79 261.72 656.58 274.65 657.8 287.43 659.12 300.07 660.21 312.56 660.76 324.88 660.48 337.05 659.13 349.08 656.51 360.96 652.49 372.73 646.98 384.4 639.97 396 631.53 407.54 621.76 419.07 610.83 430.61 598.97 442.19 586.43 453.84 573.5 465.6 560.46 477.49 547.61 489.55 535.24 501.79 523.59 514.25 512.9 526.94 503.33 539.87 495.02 553.06 488.03 566.5 482.38 580.2 478.01 594.14 474.82 608.32 472.67 622.71 471.36 637.29 470.65 652.03 470.31 666.9 470.07 681.85 469.67 696.84 468.86 711.84 467.41 726.78 465.12 741.63 461.85 756.34 457.47 770.85 451.94 785.11 445.23 799.1 437.39 812.76 428.5 826.05 418.72 836.26 414.28 846.44 409.45 856.61 404.32 866.76 399 876.89 393.59 887 388.2 897.08 382.93 907.15 377.9 917.19 373.2 927.21 368.92 937.21 365.14 947.18 361.92 957.13 359.31 967.04 357.34 976.94 356.03 986.8 355.39 996.63 355.38 1006.44 355.98 1016.22 357.13 1025.97 358.78 1035.68 360.83 1045.37 363.22 1055.02 365.82 1064.64 368.56 1074.23 371.32 1083.78 373.99 1093.31 376.48 1102.79 378.68 1112.25 380.51 1121.67 381.9 1131.05 382.76 1140.4 383.06 1149.72 382.74 1159 381.79 1168.24 380.21 1177.45 378 1186.62 375.2 1195.76 371.84 1204.86 367.98 1213.93 363.7 1222.96 359.07 1231.95 354.19 1240.91 349.15 1249.84 344.04 1258.73 338.98 1267.58 334.06 1276.4 329.37 1285.19 325.01 1293.94 321.05 1302.66 317.57 1311.35 314.62 1320 312.24 1337.2 309.59 1354.3 308.75 1371.25 310.61 1388.11 313.77 1404.84 318.31 1421.49 323.13" fill="url(#uuunion-grad3)" filter="url(#uuunion-blur2)"></path></svg>