<svg id="svg_1" data-name="svg1" xmlns="http://www.w3.org/2000/svg" viewBox="0 0 89.76 89.76"><defs><style>.cls-1{fill:#444;}.cls-2,.cls-3{fill:#fff;}.cls-3{font-size:9.46px;font-family:Montserrat-Regular, Montserrat;}.cls-4{fill:#9d9d9c;}</style></defs><circle class="cls-1" cx="44.88" cy="44.88" r="44.88"/><circle class="cls-2" cx="44.87" cy="44.88" r="27.99"/><text class="cls-3" transform="translate(11.74 41.15) rotate(-76.89)">D</text><text class="cls-3" transform="translate(13.69 33.34) rotate(-64.71)">e</text><text class="cls-3" transform="matrix(0.57, -0.82, 0.82, 0.57, 16.38, 27.84)">s</text><text class="cls-3" transform="translate(19.27 23.72) rotate(-45.84)">c</text><text class="cls-3" transform="translate(23.22 19.63) rotate(-35.18)">u</text><text class="cls-3" transform="translate(28.68 15.82) rotate(-23.63)">b</text><text class="cls-3" transform="matrix(0.97, -0.24, 0.24, 0.97, 34.96, 13.22)">r</text><text class="cls-3" transform="translate(38.99 12.17) rotate(-5.31)">a</text><text class="cls-3" transform="translate(45.05 11.75) rotate(2.39)"> </text><text class="cls-3" transform="translate(48.04 11.79) rotate(10.51)">o</text><text class="cls-3" transform="matrix(0.95, 0.32, -0.32, 0.95, 54.3, 13.11)"> </text><text class="cls-3" transform="translate(57.14 13.97) rotate(26.85)">F</text><text class="cls-3" transform="translate(62.61 16.74) rotate(37.76)">u</text><text class="cls-3" transform="translate(67.89 21) rotate(47.24)">t</text><text class="cls-3" transform="translate(70.83 24.08) rotate(56.72)">u</text><text class="cls-3" transform="translate(74.42 29.8) rotate(66.2)">r</text><text class="cls-3" transform="translate(76.14 33.55) rotate(75.23)">o</text><text class="cls-3" transform="matrix(0.73, 0.69, -0.69, 0.73, 14.42, 71.06)">N</text><text class="cls-3" transform="matrix(0.86, 0.52, -0.52, 0.86, 21.37, 77.3)">X</text><text class="cls-3" transform="translate(27.84 81.03) rotate(20.91)">T</text><text class="cls-3" transform="translate(34.27 83.28) rotate(13.15)"> </text><text class="cls-3" transform="matrix(1, 0.06, -0.06, 1, 38.17, 84.29)">D</text><text class="cls-3" transform="translate(47.44 84.52) rotate(-5.94)">i</text><text class="cls-3" transform="matrix(0.97, -0.25, 0.25, 0.97, 51.45, 84.14)">g</text><text class="cls-3" transform="matrix(0.92, -0.39, 0.39, 0.92, 59.04, 81.9)">i</text><text class="cls-3" transform="matrix(0.87, -0.5, 0.5, 0.87, 62.59, 80.33)">t</text><text class="cls-3" transform="translate(67.17 77.66) rotate(-38.66)">a</text><text class="cls-3" transform="translate(72.48 73.15) rotate(-46.48)">l</text><path class="cls-4" d="M50,30.48c.25,0,.27.2.3.38.26,1.56.5,3.12.79,4.68a30.94,30.94,0,0,0,1.68,6,10.19,10.19,0,0,0,6.11,5.86,38.28,38.28,0,0,0,7.07,1.76c1.06.19,2.13.35,3.19.52.18,0,.39,0,.4.27s-.21.27-.4.3a73.78,73.78,0,0,0-7.79,1.49,16.94,16.94,0,0,0-4.77,1.95,10.63,10.63,0,0,0-4.26,5.86,49.3,49.3,0,0,0-1.76,8c-.09.51-.16,1-.25,1.53,0,.2,0,.46-.3.45s-.24-.25-.27-.44c-.3-1.85-.58-3.7-1-5.54a29.15,29.15,0,0,0-1.51-5.17,10.2,10.2,0,0,0-6.07-5.79,38.31,38.31,0,0,0-7.07-1.77c-1.08-.19-2.16-.35-3.24-.52-.18,0-.37-.06-.37-.29s.2-.25.38-.28c2.38-.37,4.76-.73,7.1-1.31a20.19,20.19,0,0,0,4.81-1.73,10,10,0,0,0,4.64-5.5,36.62,36.62,0,0,0,1.78-7.07c.19-1.08.35-2.16.52-3.24C49.73,30.69,49.76,30.53,50,30.48Z" transform="translate(-5.12 -5.12)"/></svg>